<?xml version="1.0" standalone="no"?>
<!DOCTYPE svg PUBLIC "-//W3C//DTD SVG 20010904//EN"
 "http://www.w3.org/TR/2001/REC-SVG-20010904/DTD/svg10.dtd">
<svg version="1.0" xmlns="http://www.w3.org/2000/svg"
 width="512.000000pt" height="512.000000pt" viewBox="0 0 512.000000 512.000000"
 preserveAspectRatio="xMidYMid meet">

<g transform="translate(0.000000,512.000000) scale(0.100000,-0.100000)"
fill="#000000" stroke="none">
<path d="M2115 5113 c-214 -25 -329 -51 -541 -122 -205 -68 -298 -84 -454 -79
-144 6 -207 24 -305 92 -56 38 -65 41 -127 41 -74 0 -105 -16 -145 -74 -49
-72 -104 -264 -123 -430 -12 -97 -11 -105 7 -130 14 -18 31 -27 56 -29 58 -5
72 17 86 141 19 172 79 368 114 375 9 2 31 -8 50 -22 51 -39 157 -85 233 -101
38 -8 122 -15 187 -15 146 0 264 23 472 90 261 85 372 107 585 117 279 12 542
-41 786 -159 67 -32 107 -46 120 -42 37 14 54 36 54 74 0 44 -13 57 -97 99
-169 84 -370 143 -572 166 -114 14 -308 18 -386 8z"/>
<path d="M3745 4991 c-245 -64 -421 -207 -526 -426 -51 -105 -69 -179 -76
-300 -12 -216 61 -413 212 -574 l62 -66 -65 -213 c-36 -117 -68 -209 -72 -205
-4 4 -12 46 -19 93 -31 213 -80 410 -131 518 -40 85 -135 183 -216 223 -124
61 -233 50 -407 -42 -379 -200 -398 -201 -686 -44 -203 110 -226 118 -336 119
-83 1 -96 -2 -157 -32 -76 -37 -173 -134 -212 -210 -47 -93 -110 -342 -142
-557 -7 -49 -8 -46 -61 165 l-54 214 -54 56 c-98 103 -154 209 -205 383 -16
57 -37 107 -47 114 -26 20 -71 15 -94 -8 -19 -19 -21 -29 -16 -78 14 -146 121
-371 235 -493 42 -46 46 -54 88 -220 50 -198 51 -208 25 -208 -35 0 -159 -70
-196 -111 -21 -23 -51 -71 -69 -108 -27 -58 -31 -76 -30 -151 1 -112 27 -181
99 -258 68 -74 144 -112 238 -121 l69 -6 -1 -125 c-2 -153 9 -214 54 -307 92
-188 352 -348 668 -413 55 -11 57 -12 57 -44 l0 -33 -113 -5 c-94 -4 -129 -11
-214 -40 -282 -97 -469 -302 -551 -607 -24 -88 -26 -112 -26 -301 0 -185 3
-217 27 -330 36 -169 45 -198 68 -221 19 -19 46 -19 1247 -19 1058 0 1230 2
1248 15 23 15 40 70 75 235 19 88 23 137 23 310 1 181 -2 215 -21 293 -28 109
-75 223 -114 277 -26 35 -34 40 -68 40 -30 0 -44 -6 -55 -22 -24 -34 -20 -57
28 -159 70 -150 81 -204 81 -419 0 -155 -4 -204 -24 -302 l-23 -118 -94 0 -94
0 0 160 c0 157 -1 161 -25 185 -31 32 -74 33 -103 2 -21 -22 -22 -33 -22 -185
l0 -162 -810 0 -810 0 0 163 c0 158 -1 164 -23 185 -31 29 -72 28 -102 -3 -24
-24 -25 -27 -25 -185 l0 -161 -92 3 -93 3 -17 75 c-45 194 -49 451 -9 605 27
103 87 225 148 297 122 147 316 238 505 238 l78 0 0 -37 c0 -58 28 -161 57
-215 56 -102 174 -191 292 -218 180 -42 394 57 476 221 31 61 55 150 55 206
l0 43 78 0 c102 0 212 -28 314 -82 45 -23 93 -41 107 -40 38 3 61 30 61 73 0
46 -29 72 -141 123 -103 47 -186 66 -311 73 l-108 6 0 33 c0 32 2 33 58 44
150 31 362 118 469 192 71 49 156 140 191 205 49 92 62 159 62 314 l0 136 70
5 c177 13 321 161 337 346 14 167 -94 335 -249 388 -27 8 -48 21 -48 27 1 28
99 322 106 320 28 -7 124 -49 124 -54 0 -3 -22 -32 -50 -63 -42 -48 -50 -63
-50 -98 0 -32 7 -47 34 -74 30 -30 40 -34 88 -34 147 0 305 83 420 220 34 40
60 60 95 73 122 45 260 152 338 262 101 142 148 288 149 465 0 165 -36 290
-124 425 -99 151 -238 258 -414 317 -80 27 -107 31 -221 34 -103 3 -145 0
-200 -15z m339 -151 c115 -29 189 -73 281 -165 135 -134 190 -264 189 -450 -1
-93 -5 -122 -28 -190 -36 -105 -87 -186 -162 -261 -61 -60 -173 -127 -257
-154 -27 -8 -49 -27 -76 -63 -50 -68 -109 -120 -170 -152 -28 -14 -53 -25 -56
-25 -2 0 11 30 30 66 38 72 40 81 24 118 -12 26 -17 28 -139 67 -355 113 -531
531 -366 872 130 271 437 412 730 337z m-2513 -929 c30 -10 107 -48 171 -84
315 -175 439 -177 740 -10 148 82 222 112 273 113 95 0 213 -96 255 -208 94
-248 171 -855 174 -1372 1 -205 1 -205 -27 -262 -43 -87 -144 -177 -269 -237
-193 -94 -407 -139 -694 -148 -636 -20 -1113 191 -1141 503 -11 127 26 718 63
994 36 266 97 513 146 584 41 59 83 99 133 122 61 29 105 30 176 5z m-712
-888 c62 -235 70 -293 55 -385 -6 -37 -8 -38 -51 -38 -123 0 -217 99 -218 230
0 103 55 181 154 216 50 18 49 18 60 -23z m2642 -8 c47 -31 87 -97 95 -158 18
-131 -88 -256 -217 -257 l-46 0 -7 53 c-15 130 -3 202 69 394 6 16 57 1 106
-32z m-1093 -1610 c-3 -132 -6 -156 -26 -196 -66 -134 -218 -200 -355 -153
-61 21 -132 84 -165 148 -24 47 -26 62 -30 201 l-4 150 292 0 292 0 -4 -150z"/>
<path d="M3845 4666 c-96 -44 -166 -142 -144 -203 20 -59 91 -68 126 -16 10
14 32 41 50 60 27 28 38 33 78 33 40 0 52 -5 81 -34 28 -28 34 -42 34 -75 0
-80 -52 -131 -135 -131 -92 0 -125 -48 -125 -180 0 -83 2 -93 25 -115 13 -14
36 -25 50 -25 14 0 37 11 50 25 21 20 25 34 25 84 l0 60 38 7 c129 23 222 131
222 257 0 82 -17 130 -64 184 -80 91 -205 119 -311 69z"/>
<path d="M3835 3905 c-16 -15 -25 -36 -25 -55 0 -38 39 -80 75 -80 36 0 75 42
75 80 0 38 -39 80 -75 80 -14 0 -37 -11 -50 -25z"/>
<path d="M1438 3319 c-107 -38 -148 -107 -95 -157 30 -28 61 -28 121 3 68 35
160 35 234 0 65 -30 96 -31 122 -5 47 47 14 111 -77 152 -71 31 -227 35 -305
7z"/>
<path d="M2420 3318 c-23 -25 -26 -65 -6 -94 8 -11 43 -34 78 -49 164 -74 428
-16 428 94 0 38 -31 71 -67 71 -14 0 -50 -12 -80 -26 -47 -23 -62 -26 -127
-22 -51 3 -85 12 -111 26 -47 28 -89 28 -115 0z"/>
<path d="M1520 3038 c-17 -18 -20 -35 -20 -108 0 -77 2 -89 23 -108 33 -31 80
-29 106 4 17 22 21 41 21 104 0 63 -4 82 -21 104 -27 34 -79 36 -109 4z"/>
<path d="M2611 3034 c-17 -22 -21 -41 -21 -104 0 -63 4 -82 21 -104 27 -34 77
-36 107 -3 19 20 22 35 22 110 0 74 -3 90 -20 107 -30 30 -83 27 -109 -6z"/>
<path d="M2317 2409 c-51 -12 -109 -43 -152 -80 -28 -25 -35 -38 -35 -68 0
-74 71 -95 138 -42 86 66 184 67 267 1 46 -37 95 -40 125 -8 27 29 25 69 -3
100 -79 85 -221 125 -340 97z"/>
</g>
</svg>
