<?xml version="1.0" standalone="no"?>
<!DOCTYPE svg PUBLIC "-//W3C//DTD SVG 20010904//EN"
 "http://www.w3.org/TR/2001/REC-SVG-20010904/DTD/svg10.dtd">
<svg version="1.0" xmlns="http://www.w3.org/2000/svg"
 width="512.000000pt" height="512.000000pt" viewBox="0 0 512.000000 512.000000"
 preserveAspectRatio="xMidYMid meet">

<g transform="translate(0.000000,512.000000) scale(0.100000,-0.100000)"
fill="#000000" stroke="none">
<path d="M253 3790 c-96 -20 -178 -85 -222 -179 l-26 -56 0 -555 0 -555 26
-55 c49 -102 132 -163 251 -181 39 -6 594 -8 1465 -7 l1402 3 22 22 c27 27 29
75 4 103 -18 20 -28 20 -1434 20 -814 0 -1433 4 -1455 10 -45 10 -81 34 -110
74 -20 27 -21 40 -24 539 -2 282 0 527 3 545 8 45 68 109 113 122 50 14 4533
14 4582 0 41 -11 94 -61 109 -103 7 -18 11 -167 11 -416 l0 -388 23 -21 c33
-31 80 -29 107 5 21 26 21 32 18 432 l-3 406 -26 56 c-33 71 -87 125 -158 158
l-56 26 -2290 1 c-1259 1 -2309 -2 -2332 -6z"/>
<path d="M849 3388 c-38 -13 -49 -47 -49 -158 l0 -99 -87 51 c-94 56 -133 62
-166 29 -22 -21 -26 -73 -7 -96 6 -7 49 -35 96 -62 46 -26 84 -50 84 -53 0 -3
-37 -25 -81 -50 -44 -25 -87 -52 -95 -61 -21 -23 -21 -75 1 -99 29 -32 72 -25
165 29 l85 49 5 -108 c6 -123 19 -150 75 -150 61 0 69 15 75 144 l5 115 85
-49 c100 -58 138 -63 169 -24 41 52 17 92 -87 150 -103 57 -102 51 -15 101 79
44 123 83 123 108 0 30 -25 66 -49 72 -42 11 -52 7 -141 -45 l-85 -50 -5 111
c-3 62 -8 117 -12 124 -13 19 -61 31 -89 21z"/>
<path d="M1810 3387 c-39 -19 -50 -53 -50 -154 0 -51 -3 -93 -7 -93 -3 0 -42
21 -86 46 -85 50 -126 57 -158 28 -25 -22 -25 -78 -1 -102 11 -11 53 -38 95
-62 43 -24 77 -46 77 -49 0 -4 -38 -28 -85 -54 -47 -27 -90 -57 -95 -67 -27
-51 5 -110 59 -110 17 0 66 21 114 49 l85 49 4 -108 c3 -123 17 -150 73 -150
61 0 69 15 75 144 l5 116 87 -50 c96 -55 136 -62 168 -30 25 25 26 74 2 98
-11 11 -53 38 -95 62 -43 24 -77 47 -77 51 0 4 29 23 64 43 94 53 126 82 126
117 0 32 -30 68 -57 70 -35 3 -49 -3 -125 -47 -43 -24 -82 -44 -88 -44 -6 0
-10 40 -10 104 0 84 -3 108 -17 124 -24 27 -53 34 -83 19z"/>
<path d="M2780 3393 c-44 -16 -50 -32 -50 -145 0 -68 -4 -108 -10 -108 -6 0
-46 20 -88 44 -99 57 -127 61 -162 26 -27 -27 -26 -74 3 -100 12 -12 55 -39
95 -61 39 -22 72 -44 72 -48 0 -4 -38 -29 -85 -55 -47 -27 -90 -56 -95 -66
-27 -51 5 -110 60 -110 18 0 63 19 109 45 43 25 83 45 89 45 8 0 12 -32 12
-105 0 -120 12 -145 73 -145 58 0 71 25 75 150 l4 108 83 -49 c51 -30 95 -49
114 -49 56 0 89 59 61 109 -5 10 -48 40 -95 67 -47 27 -85 52 -85 56 0 4 34
26 77 49 42 23 84 50 95 61 23 23 23 69 0 97 -28 36 -70 30 -160 -23 -45 -25
-83 -46 -85 -46 -3 0 -6 47 -9 105 -3 88 -7 108 -23 124 -23 22 -53 32 -75 24z"/>
<path d="M4075 3309 c-176 -26 -327 -119 -429 -263 -82 -115 -116 -224 -116
-373 0 -84 -2 -92 -21 -98 -35 -11 -101 -77 -120 -120 -17 -37 -19 -76 -19
-496 l0 -455 26 -52 c31 -62 90 -107 161 -122 32 -7 255 -10 638 -8 583 3 590
3 630 25 52 28 89 68 114 123 20 43 21 64 21 480 0 261 -4 449 -10 471 -15 54
-50 100 -101 134 l-46 30 -5 105 c-14 255 -138 452 -353 558 -110 55 -254 78
-370 61z m225 -166 c113 -31 240 -135 293 -239 33 -66 57 -167 57 -242 l0 -62
-485 0 -485 0 0 71 c0 163 66 298 193 394 125 95 270 122 427 78z m480 -723
c11 -11 22 -30 25 -42 3 -13 4 -211 3 -440 l-3 -417 -23 -23 -23 -23 -593 0
-594 0 -26 24 -26 24 0 432 c0 422 0 433 21 459 l20 26 600 0 c583 0 600 -1
619 -20z"/>
<path d="M4065 2251 c-112 -51 -167 -195 -116 -306 21 -47 71 -99 112 -115 27
-12 29 -16 29 -70 0 -73 5 -87 40 -105 21 -11 35 -12 58 -4 37 13 52 45 52
114 0 45 3 55 21 60 32 11 88 65 109 106 59 116 13 258 -105 318 -51 27 -144
28 -200 2z m153 -151 c62 -58 14 -153 -73 -141 -30 3 -65 48 -65 82 0 66 89
104 138 59z"/>
</g>
</svg>
