<?xml version="1.0" standalone="no"?>
<!DOCTYPE svg PUBLIC "-//W3C//DTD SVG 20010904//EN"
 "http://www.w3.org/TR/2001/REC-SVG-20010904/DTD/svg10.dtd">
<svg version="1.0" xmlns="http://www.w3.org/2000/svg"
 width="512.000000pt" height="512.000000pt" viewBox="0 0 512.000000 512.000000"
 preserveAspectRatio="xMidYMid meet">

<g transform="translate(0.000000,512.000000) scale(0.100000,-0.100000)"
fill="#000000" stroke="none">
<path d="M1518 4801 c-613 -190 -1024 -323 -1035 -334 -17 -17 -18 -65 -21
-790 -2 -432 1 -858 7 -967 20 -391 103 -724 260 -1055 171 -359 433 -692 739
-938 154 -123 1058 -717 1092 -717 21 0 765 479 965 621 508 361 880 902 1040
1511 77 297 95 505 95 1159 0 439 -3 479 -40 499 -29 16 -68 12 -89 -9 -18
-18 -19 -49 -24 -592 -6 -584 -10 -662 -51 -873 -111 -572 -435 -1107 -896
-1480 -70 -57 -396 -277 -835 -563 l-80 -53 -3 147 c-2 109 1 150 10 159 7 7
153 103 323 214 341 223 431 289 567 418 324 309 554 715 652 1155 52 230 56
311 56 1104 0 839 11 755 -101 791 -61 20 -789 245 -1276 396 l-233 71 0 133
c0 72 1 132 3 132 1 0 421 -130 932 -288 l930 -288 3 -162 c2 -160 3 -161 29
-181 34 -27 56 -26 90 3 l28 24 0 201 c0 187 -1 202 -20 220 -21 20 -2044 652
-2081 650 -10 -1 -477 -143 -1036 -318z m962 7 l0 -133 -678 -210 c-372 -115
-726 -224 -785 -243 -60 -18 -117 -42 -128 -53 -17 -17 -19 -35 -19 -221 0
-193 1 -203 22 -225 30 -33 80 -31 107 3 19 24 21 40 21 183 l0 156 132 42
c73 23 318 98 543 168 226 70 511 158 634 197 123 38 233 68 245 66 11 -3 360
-110 774 -238 l753 -234 -4 -751 c-4 -715 -5 -755 -25 -860 -100 -517 -340
-940 -717 -1262 -99 -86 -244 -186 -653 -452 l-142 -93 -253 165 c-384 252
-417 276 -526 366 -332 274 -580 668 -692 1095 -58 224 -62 266 -66 726 -2
262 -8 435 -14 452 -21 53 -102 58 -129 7 -9 -15 -11 -140 -7 -463 4 -395 7
-453 26 -556 62 -336 172 -617 345 -880 184 -280 399 -490 715 -698 80 -52
230 -151 334 -218 l187 -123 0 -151 c0 -118 -3 -150 -12 -144 -130 78 -829
546 -898 601 -52 42 -151 133 -220 202 -370 373 -611 844 -700 1366 -33 191
-41 469 -38 1244 l3 724 205 64 c113 35 529 164 925 287 396 123 723 225 728
225 4 1 7 -59 7 -131z"/>
<path d="M3302 3883 c-15 -16 -243 -327 -507 -691 l-480 -664 -185 191 c-156
161 -190 191 -213 191 -23 0 -50 -21 -125 -93 -54 -50 -159 -151 -234 -224
-76 -72 -142 -142 -147 -155 -6 -15 -5 -33 3 -50 6 -14 185 -208 399 -431 335
-350 394 -408 440 -427 104 -46 234 -21 309 58 43 45 1332 1828 1349 1865 9
20 9 33 1 51 -9 20 -421 329 -516 387 -42 26 -63 24 -94 -8z m253 -290 c96
-69 175 -130 175 -135 0 -17 -1275 -1771 -1298 -1786 -31 -20 -103 -20 -132 1
-13 9 -100 97 -193 194 -93 98 -249 261 -346 362 l-176 184 165 157 165 158
140 -147 c242 -254 228 -241 268 -241 26 0 41 7 59 28 12 15 238 326 502 690
263 364 483 662 488 662 4 0 87 -57 183 -127z"/>
</g>
</svg>
